<svg width="18" height="20" viewBox="0 0 18 20" fill="none" xmlns="http://www.w3.org/2000/svg">
<path d="M17.7667 10.1532L9.66761 0.646352C9.32654 0.245161 8.67142 0.245161 8.33035 0.646352L0.23126 10.1532C0.114683 10.2898 0.0381633 10.4591 0.011004 10.6407C-0.0161553 10.8223 0.00721607 11.0084 0.0782766 11.1762C0.222261 11.5194 0.544425 11.7399 0.899885 11.7399H2.69968V18.3948C2.69968 18.6469 2.79449 18.8887 2.96326 19.067C3.13202 19.2453 3.36091 19.3455 3.59958 19.3455H6.29928C6.53795 19.3455 6.76684 19.2453 6.93561 19.067C7.10437 18.8887 7.19918 18.6469 7.19918 18.3948V14.592H10.7988V18.3948C10.7988 18.6469 10.8936 18.8887 11.0624 19.067C11.2311 19.2453 11.46 19.3455 11.6987 19.3455H14.3984C14.637 19.3455 14.8659 19.2453 15.0347 19.067C15.2035 18.8887 15.2983 18.6469 15.2983 18.3948V11.7399H17.0981C17.2724 11.7407 17.4431 11.6879 17.5895 11.588C17.7358 11.488 17.8515 11.3452 17.9224 11.177C17.9933 11.0088 18.0163 10.8225 17.9886 10.6407C17.961 10.4589 17.8839 10.2895 17.7667 10.1532Z" fill="#2D3533"/>
</svg>
