<svg width="21" height="20" viewBox="0 0 21 20" fill="none" xmlns="http://www.w3.org/2000/svg">
<path d="M10.295 5.99423C8.14201 5.99423 6.40443 7.7833 6.40443 10.0001C6.40443 12.2169 8.14201 14.0059 10.295 14.0059C12.448 14.0059 14.1856 12.2169 14.1856 10.0001C14.1856 7.7833 12.448 5.99423 10.295 5.99423ZM10.295 12.6036C8.90268 12.6036 7.76642 11.4337 7.76642 10.0001C7.76642 8.5665 8.90268 7.39658 10.295 7.39658C11.6874 7.39658 12.8236 8.5665 12.8236 10.0001C12.8236 11.4337 11.6874 12.6036 10.295 12.6036ZM14.3449 4.89658C13.8423 4.89658 13.4363 5.31455 13.4363 5.83212C13.4363 6.3497 13.8423 6.76767 14.3449 6.76767C14.8476 6.76767 15.2536 6.35165 15.2536 5.83212C15.2537 5.70922 15.2303 5.5875 15.1847 5.47392C15.1391 5.36035 15.0722 5.25715 14.9878 5.17025C14.9034 5.08334 14.8031 5.01444 14.6928 4.96748C14.5825 4.92052 14.4643 4.89642 14.3449 4.89658ZM17.8789 10.0001C17.8789 8.92197 17.8884 7.85361 17.8296 6.77744C17.7708 5.52744 17.4938 4.41806 16.6061 3.504C15.7164 2.58798 14.6409 2.30478 13.4268 2.24423C12.3797 2.18369 11.3421 2.19345 10.2969 2.19345C9.24981 2.19345 8.2122 2.18369 7.16699 2.24423C5.95296 2.30478 4.87551 2.58994 3.98775 3.504C3.0981 4.42001 2.82304 5.52744 2.76424 6.77744C2.70544 7.85556 2.71492 8.92392 2.71492 10.0001C2.71492 11.0763 2.70544 12.1466 2.76424 13.2227C2.82304 14.4727 3.09999 15.5821 3.98775 16.4962C4.87741 17.4122 5.95296 17.6954 7.16699 17.7559C8.21409 17.8165 9.25171 17.8067 10.2969 17.8067C11.344 17.8067 12.3816 17.8165 13.4268 17.7559C14.6409 17.6954 15.7183 17.4102 16.6061 16.4962C17.4957 15.5802 17.7708 14.4727 17.8296 13.2227C17.8903 12.1466 17.8789 11.0782 17.8789 10.0001ZM16.2096 14.6056C16.0711 14.961 15.9042 15.2267 15.6367 15.5001C15.3693 15.7755 15.1132 15.9474 14.768 16.0899C13.7702 16.4981 11.4009 16.4063 10.295 16.4063C9.18911 16.4063 6.81796 16.4981 5.82018 16.0919C5.47494 15.9493 5.21696 15.7774 4.95139 15.502C4.68392 15.2267 4.51699 14.963 4.37852 14.6075C3.98396 13.5782 4.07311 11.1388 4.07311 10.0001C4.07311 8.86142 3.98396 6.42001 4.37852 5.39267C4.51699 5.0372 4.68392 4.77158 4.95139 4.49814C5.21886 4.2247 5.47494 4.05087 5.82018 3.9083C6.81796 3.50205 9.18911 3.59384 10.295 3.59384C11.4009 3.59384 13.7721 3.50205 14.7699 3.9083C15.1151 4.05087 15.3731 4.22275 15.6386 4.49814C15.9061 4.77353 16.073 5.0372 16.2115 5.39267C16.6061 6.42001 16.5169 8.86142 16.5169 10.0001C16.5169 11.1388 16.6061 13.5782 16.2096 14.6056Z" fill="white"/>
</svg>
