<svg width="18" height="20" viewBox="0 0 18 20" fill="none" xmlns="http://www.w3.org/2000/svg">
<path d="M7.69765 16.5952C9.40555 16.5948 11.0642 15.9913 12.4096 14.8808L16.6394 19.3455L18 17.9094L13.7701 13.4448C14.8228 12.0246 15.3949 10.2735 15.3953 8.47033C15.3953 3.99048 11.9419 0.345459 7.69765 0.345459C3.45336 0.345459 0 3.99048 0 8.47033C0 12.9502 3.45336 16.5952 7.69765 16.5952ZM7.69765 2.37668C10.8816 2.37668 13.4709 5.10968 13.4709 8.47033C13.4709 11.831 10.8816 14.564 7.69765 14.564C4.51371 14.564 1.92441 11.831 1.92441 8.47033C1.92441 5.10968 4.51371 2.37668 7.69765 2.37668Z" fill="#2D3533"/>
</svg>
