<svg width="12" height="23" viewBox="0 0 12 23" fill="none" xmlns="http://www.w3.org/2000/svg">
<path d="M11.5712 22.5721C11.4418 22.667 11.2965 22.7104 11.1509 22.6977C11.0053 22.685 10.8649 22.6166 10.7448 22.5L0.344419 12.3544C0.238146 12.2506 0.151299 12.1121 0.0913162 11.9507C0.031332 11.7894 0 11.6099 0 11.4277C0 11.2456 0.031332 11.0661 0.0913162 10.9047C0.151299 10.7433 0.238146 10.6048 0.344419 10.5011L10.7448 0.355477C10.8646 0.237624 11.0052 0.168413 11.1511 0.155389C11.297 0.142365 11.4426 0.186028 11.5721 0.281619C11.7016 0.377209 11.81 0.521057 11.8854 0.69748C11.9609 0.873903 12.0005 1.07613 12 1.28211V21.5733C12 21.7791 11.9601 21.981 11.8845 22.157C11.8089 22.3331 11.7005 22.4766 11.5712 22.5721ZM10.3999 3.43411L2.20528 11.4277L10.3999 19.4213V3.43411Z" fill="#2D3533"/>
</svg>
