<svg width="12" height="23" viewBox="0 0 12 23" fill="none" xmlns="http://www.w3.org/2000/svg">
<path d="M0.428819 22.6919C0.558235 22.7872 0.703541 22.8309 0.849138 22.8181C0.994735 22.8053 1.13513 22.7366 1.25525 22.6193L11.6556 12.4195C11.7619 12.3152 11.8487 12.176 11.9087 12.0138C11.9687 11.8515 12 11.6711 12 11.4879C12 11.3048 11.9687 11.1244 11.9087 10.9621C11.8487 10.7999 11.7619 10.6607 11.6556 10.5564L1.25525 0.356558C1.13535 0.238075 0.9948 0.168494 0.848909 0.155401C0.703018 0.142307 0.557389 0.186204 0.4279 0.282305C0.298411 0.378406 0.190032 0.523022 0.114578 0.700387C0.039125 0.877752 -0.000506547 1.08106 4.88801e-06 1.28814V21.6877C-1.91775e-05 21.8946 0.0399286 22.0976 0.115518 22.2746C0.191108 22.4516 0.299456 22.5959 0.428819 22.6919ZM1.60006 3.45163L9.79472 11.4879L1.60006 19.5243V3.45163Z" fill="#2D3533"/>
</svg>
