<svg width="20" height="20" viewBox="0 0 20 20" fill="none" xmlns="http://www.w3.org/2000/svg">
<path d="M18.4407 9.94531C18.4407 9.90234 18.4407 9.85352 18.4388 9.79687C18.4369 9.63867 18.4331 9.46094 18.4294 9.27148C18.4142 8.72656 18.3876 8.18359 18.3459 7.67187C18.289 6.9668 18.2055 6.37891 18.0917 5.9375C17.9716 5.47685 17.7362 5.05674 17.4089 4.71913C17.0817 4.38153 16.6742 4.13827 16.227 4.01367C15.6902 3.86523 14.6393 3.77344 13.1597 3.7168C12.456 3.68945 11.7029 3.67187 10.9498 3.66211C10.6861 3.6582 10.4414 3.65625 10.2214 3.6543H9.66369C9.44365 3.65625 9.19894 3.6582 8.93527 3.66211C8.18219 3.67187 7.42912 3.68945 6.72536 3.7168C5.24576 3.77539 4.19297 3.86719 3.65804 4.01367C3.21075 4.13797 2.80304 4.38112 2.47577 4.71877C2.14851 5.05642 1.91318 5.4767 1.79337 5.9375C1.67766 6.37891 1.59609 6.9668 1.53918 7.67187C1.49745 8.18359 1.47089 8.72656 1.45572 9.27148C1.45003 9.46094 1.44813 9.63867 1.44623 9.79687C1.44623 9.85352 1.44434 9.90234 1.44434 9.94531V10.0547C1.44434 10.0977 1.44434 10.1465 1.44623 10.2031C1.44813 10.3613 1.45192 10.5391 1.45572 10.7285C1.47089 11.2734 1.49745 11.8164 1.53918 12.3281C1.59609 13.0332 1.67955 13.6211 1.79337 14.0625C2.03617 14.998 2.74942 15.7363 3.65804 15.9863C4.19297 16.1348 5.24576 16.2266 6.72536 16.2832C7.42912 16.3105 8.18219 16.3281 8.93527 16.3379C9.19894 16.3418 9.44365 16.3438 9.66369 16.3457H10.2214C10.4414 16.3438 10.6861 16.3418 10.9498 16.3379C11.7029 16.3281 12.456 16.3105 13.1597 16.2832C14.6393 16.2246 15.6921 16.1328 16.227 15.9863C17.1357 15.7363 17.8489 15 18.0917 14.0625C18.2074 13.6211 18.289 13.0332 18.3459 12.3281C18.3876 11.8164 18.4142 11.2734 18.4294 10.7285C18.435 10.5391 18.4369 10.3613 18.4388 10.2031C18.4388 10.1465 18.4407 10.0977 18.4407 10.0547V9.94531ZM17.075 10.0469C17.075 10.0879 17.075 10.1328 17.0731 10.1855C17.0712 10.3379 17.0674 10.5059 17.0636 10.6875C17.0503 11.207 17.0237 11.7266 16.9839 12.209C16.9327 12.8379 16.8606 13.3535 16.7714 13.6992C16.6538 14.1504 16.3086 14.5078 15.8723 14.627C15.474 14.7363 14.4705 14.8242 13.1066 14.877C12.4161 14.9043 11.6725 14.9219 10.9308 14.9316C10.671 14.9355 10.43 14.9375 10.2138 14.9375H9.67128L8.95424 14.9316C8.21254 14.9219 7.47085 14.9043 6.77847 14.877C5.41459 14.8223 4.40922 14.7363 4.01276 14.627C3.57647 14.5059 3.23123 14.1504 3.11363 13.6992C3.02447 13.3535 2.95239 12.8379 2.90117 12.209C2.86133 11.7266 2.83667 11.207 2.8215 10.6875C2.81581 10.5059 2.81391 10.3359 2.81202 10.1855C2.81202 10.1328 2.81012 10.0859 2.81012 10.0469V9.95312C2.81012 9.91211 2.81012 9.86719 2.81202 9.81445C2.81391 9.66211 2.81771 9.49414 2.8215 9.3125C2.83478 8.79297 2.86133 8.27344 2.90117 7.79102C2.95239 7.16211 3.02447 6.64648 3.11363 6.30078C3.23123 5.84961 3.57647 5.49219 4.01276 5.37305C4.41112 5.26367 5.41459 5.17578 6.77847 5.12305C7.46895 5.0957 8.21254 5.07812 8.95424 5.06836C9.21412 5.06445 9.45503 5.0625 9.67128 5.0625H10.2138L10.9308 5.06836C11.6725 5.07812 12.4142 5.0957 13.1066 5.12305C14.4705 5.17773 15.4758 5.26367 15.8723 5.37305C16.3086 5.49414 16.6538 5.84961 16.7714 6.30078C16.8606 6.64648 16.9327 7.16211 16.9839 7.79102C17.0237 8.27344 17.0484 8.79297 17.0636 9.3125C17.0693 9.49414 17.0712 9.66406 17.0731 9.81445C17.0731 9.86719 17.075 9.91406 17.075 9.95312V10.0469ZM8.25428 12.6172L12.6551 9.98047L8.25428 7.38281V12.6172Z" fill="white"/>
</svg>
